<?xml version="1.0" encoding="UTF-8"?>
<svg id="Layer_1" data-name="Layer 1" xmlns="http://www.w3.org/2000/svg" xmlns:xlink="http://www.w3.org/1999/xlink" viewBox="0 0 1200 1200">
  <defs>
    <style>
      .cls-1 {
        fill: url(#linear-gradient);
      }

      .cls-2 {
        fill: #051159;
      }

      .cls-3 {
        fill: #fff;
      }

      .cls-4 {
        fill: url(#radial-gradient-2);
      }

      .cls-5 {
        fill: url(#radial-gradient);
      }
    </style>
    <linearGradient id="linear-gradient" x1="842.77" y1="292.64" x2="405.56" y2="842.96" gradientUnits="userSpaceOnUse">
      <stop offset=".06" stop-color="#73f8fd"/>
      <stop offset=".9" stop-color="#0e2be6"/>
    </linearGradient>
    <radialGradient id="radial-gradient" cx="593.94" cy="555.33" fx="593.94" fy="555.33" r="311.42" gradientUnits="userSpaceOnUse">
      <stop offset="0" stop-color="#73f8fd"/>
      <stop offset=".65" stop-color="#6eedfc" stop-opacity="0"/>
      <stop offset=".93" stop-color="#73f7fd" stop-opacity=".93"/>
    </radialGradient>
    <radialGradient id="radial-gradient-2" cx="600" cy="936.67" fx="600" fy="936.67" r="220.96" gradientTransform="translate(0 867.24) scale(1 .07)" gradientUnits="userSpaceOnUse">
      <stop offset="0" stop-color="#60a1fd" stop-opacity=".8"/>
      <stop offset="1" stop-color="#60a1fd" stop-opacity="0"/>
    </radialGradient>
  </defs>
  <rect class="cls-3" x="0" y="0" width="1200" height="1200"/>
  <g>
    <g>
      <path class="cls-1" d="m825.05,445.56v387.11c0,11.17-4.52,21.29-11.84,28.61-7.32,7.32-17.44,11.84-28.61,11.84-22.34,0-40.44-18.1-40.44-40.44v-86.67c0-19.14-15.52-34.67-34.67-34.67s-34.67,15.52-34.67,34.67v127.11c0,12.76-10.35,23.11-23.11,23.11s-23.11-10.35-23.11-23.11v-115.56c0-12.76-10.35-23.11-23.11-23.11s-23.11,10.35-23.11,23.11v52c0,11.17-4.52,21.29-11.84,28.61-7.32,7.32-17.44,11.84-28.61,11.84-22.34,0-40.44-18.1-40.44-40.44v-75.11c0-12.76-10.35-23.11-23.11-23.11s-23.11,10.35-23.11,23.11v92.44c0,25.52-20.7,46.22-46.22,46.22s-46.22-20.7-46.22-46.22v-381.33c0-127.64,103.47-231.11,231.11-231.11s231.11,103.47,231.11,231.11Z"/>
      <path class="cls-5" d="m593.94,214.44c127.64,0,231.11,103.47,231.11,231.11v387.11c0,11.17-4.52,21.29-11.84,28.61-7.32,7.32-17.44,11.84-28.61,11.84-22.34,0-40.44-18.1-40.44-40.44v-86.67c0-19.14-15.52-34.67-34.67-34.67s-34.67,15.52-34.67,34.67v127.11c0,12.76-10.35,23.11-23.11,23.11s-23.11-10.35-23.11-23.11v-115.56c0-12.76-10.35-23.11-23.11-23.11s-23.11,10.35-23.11,23.11v52c0,11.17-4.52,21.29-11.84,28.61-7.32,7.32-17.44,11.84-28.61,11.84-22.34,0-40.44-18.1-40.44-40.44v-75.11c0-12.76-10.35-23.11-23.11-23.11s-23.11,10.35-23.11,23.11v92.44c0,25.52-20.7,46.22-46.22,46.22s-46.22-20.7-46.22-46.22v-381.33c0-127.64,103.47-231.11,231.11-231.11m0-20.54c-33.96,0-66.92,6.66-97.96,19.78-29.97,12.68-56.88,30.82-79.99,53.92-23.1,23.1-41.25,50.02-53.92,79.98-13.13,31.04-19.78,64-19.78,97.96v381.33c0,36.81,29.95,66.77,66.77,66.77s66.77-29.95,66.77-66.77v-92.44c0-1.42,1.15-2.57,2.57-2.57s2.57,1.15,2.57,2.57v75.11c0,33.63,27.36,60.99,60.99,60.99,16.3,0,31.62-6.34,43.13-17.86,11.51-11.51,17.85-26.83,17.85-43.13v-52c0-1.42,1.15-2.57,2.57-2.57s2.57,1.15,2.57,2.57v115.56c0,24.07,19.58,43.65,43.65,43.65s43.65-19.58,43.65-43.65v-127.11c0-7.79,6.34-14.12,14.12-14.12s14.12,6.34,14.12,14.12v86.67c0,33.63,27.36,60.99,60.99,60.99,16.3,0,31.62-6.34,43.13-17.86,11.51-11.51,17.85-26.83,17.85-43.13v-387.11c0-33.96-6.66-66.92-19.78-97.96-12.68-29.97-30.82-56.88-53.92-79.98-23.11-23.1-50.02-41.25-79.99-53.92-31.04-13.13-64-19.78-97.96-19.78h0Z"/>
    </g>
    <g>
      <rect class="cls-2" x="415.11" y="413.72" width="369.78" height="147.39" rx="68.46" ry="68.46"/>
      <circle class="cls-3" cx="692.44" cy="487.16" r="36.98"/>
      <circle class="cls-3" cx="507.56" cy="487.16" r="36.98"/>
    </g>
    <ellipse class="cls-4" cx="600" cy="936.67" rx="312" ry="17.33"/>
  </g>
</svg>